PathFileType  4	(X/Y/Z) C:\Users\antoi\Documents\MyRepositories\mobilecap\ResultsAnalysis
DataRate	CameraRate	NumFrames	NumMarkers	Units	OrigDataRate	OrigDataStartFrame	OrigNumFrames
100.0	100.0	4	51	mm	100.0	539	861
Frame#	Time	r_knee			r_shank_antsup			r_ankle			r_calc			r_5meta			r_toe			L_knee			L_shank_antsup			L_ankle			L_calc			L_5meta			L_toe			r_sh2			r_sh3			r_sh4			L_sh2			L_sh3			r_thigh1			r_thigh2			r_thigh3			r_thigh4			r_thigh5			L_thigh1			L_thigh2			L_thigh3			L_thigh4			r.ASIS			r.PSIS			L.ASIS			L.PSIS			C7			R_Shoulder			L_Shoulder			R_Sternum			L_Sternum			R_humerus			R_elbow_med			R_elbow_lat			R_forearm			R_wrist_radius			R_wrist_ulna			L_humerus			L_elbow_med			L_elbow_lat			L_forearm			L_wrist_radius			L_wrist_ulna			R_HJC			L_HJC			R_HJC_reg			L_HJC_reg			
		X1	Y1	Z1	X2	Y2	Z2	X3	Y3	Z3	X4	Y4	Z4	X5	Y5	Z5	X6	Y6	Z6	X7	Y7	Z7	X8	Y8	Z8	X9	Y9	Z9	X10	Y10	Z10	X11	Y11	Z11	X12	Y12	Z12	X13	Y13	Z13	X14	Y14	Z14	X15	Y15	Z15	X16	Y16	Z16	X17	Y17	Z17	X18	Y18	Z18	X19	Y19	Z19	X20	Y20	Z20	X21	Y21	Z21	X22	Y22	Z22	X23	Y23	Z23	X24	Y24	Z24	X25	Y25	Z25	X26	Y26	Z26	X27	Y27	Z27	X28	Y28	Z28	X29	Y29	Z29	X30	Y30	Z30	X31	Y31	Z31	X32	Y32	Z32	X33	Y33	Z33	X34	Y34	Z34	X35	Y35	Z35	X36	Y36	Z36	X37	Y37	Z37	X38	Y38	Z38	X39	Y39	Z39	X40	Y40	Z40	X41	Y41	Z41	X42	Y42	Z42	X43	Y43	Z43	X44	Y44	Z44	X45	Y45	Z45	X46	Y46	Z46	X47	Y47	Z47	X48	Y48	Z48	X49	Y49	Z49	X50	Y50	Z50	X51	Y51	Z51	

539	5.38000000	-176.21648	579.22861	-400.29885	-148.46305	440.71616	-375.51138	-296.76595	106.50862	-336.41575	-352.55417	70.80124	-396.42679	-168.85381	46.09224	-285.66878	-127.44559	74.41498	-333.83548	-171.94361	565.81838	-875.40315	-142.07706	371.15878	-883.50516	-314.20284	113.85657	-916.84672	-377.42420	72.17875	-861.11352	-185.55677	39.61472	-971.02243	-139.82136	68.46784	-913.73945	-178.19337	331.64216	-366.78282	-216.29918	458.78105	-350.19364	-249.00059	352.46208	-331.41737	-208.05883	409.03881	-932.87368	-254.23457	298.56468	-931.42956	-415.26349	747.25177	-423.21970	-310.85905	709.35574	-405.49002	-313.58965	641.40273	-392.79454	-455.14355	639.58381	-434.86780	-343.87447	598.48497	-414.86369	-392.42454	762.07075	-840.94099	-270.93555	704.60567	-858.28588	-446.44029	669.33873	-866.58527	-321.80643	613.88932	-892.17451	-479.95066	835.06559	-503.96771	-644.08829	903.09136	-602.88738	-475.96461	817.29639	-771.55053	-637.28187	903.73568	-692.05848	-254.12313	1233.14751	-617.90318	-159.35577	1173.00245	-483.33476	-174.61780	1204.07210	-757.78735	-174.55166	1083.42062	-603.83138	-175.97280	1083.85080	-646.19581	-36.60851	1009.99094	-362.87534	-27.36179	861.06692	-301.40967	1.65036	936.12700	-258.54684	98.98730	987.36442	-439.22741	131.43345	1010.19704	-513.68570	161.11298	993.40639	-499.23312	-33.58237	1019.31415	-866.16846	-54.37172	892.54345	-919.18664	-5.66812	956.37604	-951.61307	108.61958	1000.79493	-785.89779	134.10590	1014.28871	-721.07535	159.45446	1001.94558	-740.32934	-576.80764	759.71708	-538.54612	-575.74498	752.55697	-735.88930	-567.93840	759.97100	-549.01722	-554.46651	761.24703	-725.51352	
540	5.39000000	-175.39302	579.55619	-399.80849	-148.26093	440.65798	-375.05519	-296.84506	106.66548	-336.14218	-352.60274	70.79968	-396.42576	-168.85333	46.06068	-285.61652	-127.47948	74.39998	-333.80234	-171.58781	566.35702	-876.66938	-142.28046	371.14995	-884.58875	-314.34724	113.68824	-917.01936	-377.49814	72.13787	-861.20312	-185.61131	39.45806	-971.17767	-139.93283	68.47157	-913.92697	-178.16385	331.81199	-366.29094	-215.45476	459.02636	-348.77021	-248.78477	352.64247	-330.92920	-208.15589	408.96975	-933.95053	-254.32873	298.54896	-932.10396	-410.13314	753.81568	-422.62591	-306.61956	712.89457	-404.77981	-311.22111	645.07772	-392.52180	-452.50742	647.09882	-435.51652	-342.35073	603.15867	-415.16903	-386.72176	768.47992	-842.28821	-266.72597	707.72400	-859.85305	-443.19791	676.93557	-866.89092	-320.26101	618.18942	-892.95910	-476.39979	846.98357	-504.08188	-640.23316	914.82639	-602.94628	-472.05296	830.15725	-772.74314	-633.42061	915.71015	-692.40802	-254.28326	1250.08641	-617.82615	-159.02111	1190.68559	-482.54913	-174.50535	1220.94253	-758.35666	-173.15010	1100.98302	-603.36697	-174.46446	1101.52262	-645.82866	-40.99294	1021.30256	-361.31297	-37.52264	872.15864	-300.95924	-5.85055	945.93167	-257.69020	91.80691	994.43159	-439.23627	123.93784	1016.56012	-513.84318	153.32281	998.98271	-499.58347	-39.04976	1030.80949	-867.95788	-64.31387	905.60972	-921.99219	-13.62234	967.99018	-953.99086	100.36346	1008.95316	-787.69121	125.80945	1021.74764	-722.42160	151.00969	1009.05482	-741.70459	-572.76366	771.38352	-539.39474	-571.63066	765.00402	-736.76513	-564.13754	771.66928	-549.49421	-550.64631	773.41856	-726.65893	
541	5.40000000	-175.01409	580.06406	-398.86070	-148.40340	440.72268	-374.21940	-296.97851	106.57365	-336.04867	-352.64553	70.79454	-396.39690	-168.87461	45.98485	-285.49767	-127.53125	74.34696	-333.68304	-171.54621	566.97812	-878.17402	-142.61261	371.28174	-885.80402	-314.50751	113.57918	-917.22763	-377.59059	72.08734	-861.31895	-185.67432	39.33788	-971.32593	-140.07530	68.50293	-914.15454	-178.36159	332.01068	-365.49098	-215.14295	459.24201	-347.32137	-249.05662	352.71672	-330.18692	-208.54214	408.87891	-935.00640	-254.63711	298.44298	-932.91859	-404.82369	760.69214	-421.76197	-302.52847	716.47297	-403.77763	-309.10799	648.93157	-391.95759	-449.96566	655.04150	-435.88442	-341.10039	608.18062	-414.95000	-381.09030	775.03860	-843.81112	-262.77981	711.17899	-862.09208	-440.02021	684.82416	-867.34060	-318.90222	622.65939	-893.74159	-472.58435	859.32014	-504.17162	-636.27857	926.76207	-602.97135	-467.75944	843.41123	-773.32035	-629.51056	927.97982	-692.72595	-254.74765	1267.64744	-617.61678	-158.87477	1208.98542	-482.08429	-174.71046	1238.57796	-759.07104	-171.83340	1119.29292	-602.95547	-173.26000	1119.73463	-645.57346	-46.06492	1033.23979	-360.17980	-48.63556	884.08267	-300.38552	-14.30052	956.62679	-256.99271	83.64323	1002.09356	-439.19838	115.82873	1023.30175	-513.98977	144.74909	1004.69832	-499.96974	-44.97203	1043.15694	-870.05172	-74.72645	919.33765	-924.63266	-22.13447	980.28153	-956.43036	91.92701	1017.59375	-789.54050	117.19066	1029.60694	-723.93813	142.23887	1016.48289	-743.04657	-568.45806	783.39749	-540.04034	-567.09270	777.72353	-737.43117	-559.79909	783.70275	-549.85309	-546.41755	786.10981	-727.30853	
542	5.41000000	-175.03991	580.76100	-397.42593	-148.90754	440.96783	-372.93905	-297.08866	106.37786	-335.86537	-352.69151	70.80590	-396.32989	-168.95128	45.82319	-285.40707	-127.62678	74.30866	-333.52232	-171.74306	567.73289	-879.95149	-143.10935	371.59764	-887.15216	-314.69141	113.52594	-917.54876	-377.68146	72.03478	-861.41736	-185.79595	39.13608	-971.29516	-140.17326	68.58621	-914.35544	-178.71652	332.09588	-364.60479	-215.62605	459.37007	-346.18000	-249.54566	352.53146	-329.29837	-209.17596	408.86359	-936.27348	-255.14810	298.30232	-933.85568	-399.54122	767.63000	-420.76752	-298.66925	720.30960	-402.55151	-307.18787	653.06817	-391.14417	-447.50017	663.41794	-435.91955	-340.04990	613.41086	-414.50196	-375.40624	781.84626	-845.71258	-258.87909	714.74060	-864.40070	-436.83991	693.00996	-867.93861	-317.67376	627.32215	-894.56348	-468.44447	871.96354	-504.14838	-632.30743	939.04124	-603.04972	-462.60582	857.15497	-773.24345	-625.51605	940.52948	-692.90563	-255.47600	1285.83671	-617.34023	-159.00056	1227.66892	-481.77488	-175.35731	1257.11855	-759.90791	-170.72148	1138.23980	-602.67276	-172.51966	1138.49386	-645.64006	-51.72398	1045.96013	-359.63149	-60.81018	896.77637	-299.74329	-23.53506	968.19354	-256.33327	74.52904	1010.41369	-439.24176	106.93973	1030.47305	-514.18077	135.38716	1010.95421	-500.41405	-51.50206	1056.44093	-872.30798	-85.78189	933.85107	-926.98017	-31.32294	993.25898	-958.75362	83.30207	1026.76332	-791.24842	108.26237	1037.88800	-725.51338	133.05652	1024.23948	-744.67502	-563.84130	795.70653	-540.54148	-561.85363	790.80750	-737.94604	-554.96784	796.36807	-550.04025	-541.56097	799.30649	-727.42486	
